<!DOCTYPE svg PUBLIC "-//W3C//DTD SVG 1.1//EN" "http://www.w3.org/Graphics/SVG/1.1/DTD/svg11.dtd">
<!-- Uploaded to: SVG Repo, www.svgrepo.com, Transformed by: SVG Repo Mixer Tools -->
<svg fill="#3F2305" width="800px" height="800px" viewBox="0 0 32 32" xmlns="http://www.w3.org/2000/svg">
<g id="SVGRepo_bgCarrier" stroke-width="0"/>
<g id="SVGRepo_tracerCarrier" stroke-linecap="round" stroke-linejoin="round"/>
<g id="SVGRepo_iconCarrier"> <title/> <g data-name="Layer 8" id="Layer_8"> <path d="M23.59,1H8.41A3.41,3.41,0,0,0,5,4.41V27.59A3.41,3.41,0,0,0,8.41,31H23.59A3.41,3.41,0,0,0,27,27.59V4.41A3.41,3.41,0,0,0,23.59,1ZM19,3l-.54,1.62a.56.56,0,0,1-.53.38H14.12a.56.56,0,0,1-.53-.38L13.05,3ZM25,27.59A1.41,1.41,0,0,1,23.59,29H8.41A1.41,1.41,0,0,1,7,27.59V4.41A1.41,1.41,0,0,1,8.41,3H11a1.17,1.17,0,0,0,0,.32l.65,1.93A2.55,2.55,0,0,0,14.12,7h3.76A2.55,2.55,0,0,0,20.3,5.25L21,3.32A1.17,1.17,0,0,0,21,3h2.6A1.41,1.41,0,0,1,25,4.41Z"/> <path d="M17,25H15a1,1,0,0,0,0,2h2a1,1,0,0,0,0-2Z"/> </g> </g>
</svg>