<!DOCTYPE svg PUBLIC "-//W3C//DTD SVG 1.1//EN" "http://www.w3.org/Graphics/SVG/1.1/DTD/svg11.dtd">
<!-- Uploaded to: SVG Repo, www.svgrepo.com, Transformed by: SVG Repo Mixer Tools -->
<svg fill="#3F2305" version="1.1" id="Capa_1" xmlns="http://www.w3.org/2000/svg" xmlns:xlink="http://www.w3.org/1999/xlink" width="800px" height="800px" viewBox="0 0 514.952 514.952" xml:space="preserve" stroke="#3F2305">
<g id="SVGRepo_bgCarrier" stroke-width="0"/>
<g id="SVGRepo_tracerCarrier" stroke-linecap="round" stroke-linejoin="round"/>
<g id="SVGRepo_iconCarrier"> <g> <g> <polygon points="276.405,44.875 418.955,21.119 415.444,0 258.203,26.208 230.026,172.707 251.048,176.75 "/> <path d="M95.997,238.964h26.197l10.223,105.291c8.748-2.849,19.035-5.048,30.021-5.048c8.559,0,16.84,1.336,24.586,3.961 c26.791,9.078,46.837,33.105,59.607,71.413c9.8,29.4,22.682,44.308,38.311,44.308c21.019-0.284,45.914-26.268,61.158-52.092 l14.274-167.833h24.707V189H95.997V238.964z"/> <path d="M285.289,480.167l-0.68,0.018c-25.579,0-45.141-19.807-58.153-58.865c-10.562-31.664-26.117-51.169-46.267-58.008 c-5.482-1.856-11.414-2.802-17.626-2.802c-10.409,0-20.221,2.606-28.017,5.556l13.819,142.189 c0.215,3.771,3.345,6.697,7.122,6.697h174.87c3.807,0,6.945-2.991,7.129-6.792l5.147-60.52 C326.327,465.804,306.272,479.877,285.289,480.167z"/> </g> </g> </g>
</svg>