<!DOCTYPE svg PUBLIC "-//W3C//DTD SVG 1.1//EN" "http://www.w3.org/Graphics/SVG/1.1/DTD/svg11.dtd">
<!-- Uploaded to: SVG Repo, www.svgrepo.com, Transformed by: SVG Repo Mixer Tools -->
<svg version="1.1" id="Uploaded to svgrepo.com" xmlns="http://www.w3.org/2000/svg" xmlns:xlink="http://www.w3.org/1999/xlink" width="800px" height="800px" viewBox="0 0 32 32" xml:space="preserve" fill="#3F2305">
<g id="SVGRepo_bgCarrier" stroke-width="0"/>
<g id="SVGRepo_tracerCarrier" stroke-linecap="round" stroke-linejoin="round"/>
<g id="SVGRepo_iconCarrier"> <style type="text/css"> .puchipuchi_een{fill:#3F2305;} </style> <path class="puchipuchi_een" d="M31,22v4c0,1.1-0.9,2-2,2H3c-1.1,0-2-0.9-2-2v-4c0-1.1,0.9-2,2-2h26C30.1,20,31,20.9,31,22z M30,5 c-0.55,0-1,0.45-1,1v6c0,0.55,0.45,1,1,1s1-0.45,1-1V6C31,5.45,30.55,5,30,5z M3,9V5c0-1.1,0.9-2,2-2h21c1.1,0,2,0.9,2,2v14H18v-4 c0-1.1-0.892-2.119-1.982-2.264l-5.024-0.67C10.958,13.135,10.077,14,9,14H8v2.182c0,0.276-0.224,0.5-0.5,0.5S7,16.458,7,16.182V14 H6c-1.1,0-2-0.9-2-2v-1.141C3.406,10.433,3,9.738,3,9z M21,9c0,1.105,0.895,2,2,2s2-0.895,2-2c0-1.105-0.895-2-2-2S21,7.895,21,9z M21,15c0,1.105,0.895,2,2,2s2-0.895,2-2c0-1.105-0.895-2-2-2S21,13.895,21,15z M23,10c0.552,0,1-0.448,1-1c0-0.552-0.448-1-1-1 s-1,0.448-1,1C22,9.552,22.448,10,23,10z M23,16c0.552,0,1-0.448,1-1c0-0.552-0.448-1-1-1s-1,0.448-1,1C22,15.552,22.448,16,23,16z"/> </g>
</svg>